<?xml version="1.0" standalone="no"?>
<!DOCTYPE svg PUBLIC "-//W3C//DTD SVG 20010904//EN"
 "http://www.w3.org/TR/2001/REC-SVG-20010904/DTD/svg10.dtd">
<svg version="1.0" xmlns="http://www.w3.org/2000/svg"
 width="5001.000000pt" height="1667.000000pt" viewBox="0 0 5001.000000 1667.000000"
 preserveAspectRatio="xMidYMid meet">

<g transform="translate(0.000000,1667.000000) scale(0.100000,-0.100000)"
fill="#ffffff" stroke="none">
<path d="M32920 10465 l0 -5205 365 0 365 0 0 5205 0 5205 -365 0 -365 0 0
-5205z"/>
<path d="M14882 11990 c-815 -57 -1575 -403 -2152 -980 -69 -69 -154 -161
-190 -204 l-65 -79 -3 542 -2 541 -365 0 -365 0 0 -5405 0 -5405 365 0 365 0
0 2760 c0 1518 3 2760 8 2759 4 0 39 -38 77 -85 93 -114 304 -319 440 -428
498 -399 1060 -636 1711 -722 162 -22 597 -25 759 -6 635 75 1174 289 1670
662 743 559 1217 1392 1320 2320 19 170 21 523 5 685 -132 1329 -1007 2440
-2260 2870 -410 140 -893 205 -1318 175z m586 -754 c479 -72 908 -257 1276
-550 527 -420 869 -1014 972 -1691 23 -148 26 -550 6 -690 -69 -476 -233 -880
-510 -1255 -104 -140 -377 -415 -512 -516 -514 -384 -1109 -567 -1735 -533
-546 29 -1076 232 -1505 575 -109 88 -316 295 -404 404 -210 263 -379 586
-471 900 -64 217 -92 382 -104 604 -35 653 168 1285 578 1793 108 134 333 351
471 455 400 299 846 468 1375 522 86 9 465 -4 563 -18z"/>
<path d="M21920 11989 c-1002 -67 -1934 -588 -2516 -1409 -239 -337 -419 -725
-518 -1115 -33 -133 -71 -343 -87 -485 -20 -171 -17 -573 5 -745 79 -636 307
-1184 702 -1695 114 -148 407 -440 554 -554 514 -397 1043 -617 1686 -703 183
-24 628 -24 809 1 772 104 1425 424 1960 960 317 318 553 667 729 1079 25 59
48 118 52 132 l6 25 -393 0 -394 0 -44 -83 c-129 -240 -268 -425 -470 -628
-173 -172 -333 -298 -520 -409 -361 -213 -763 -336 -1177 -359 -760 -41 -1478
233 -2014 769 -400 400 -635 862 -744 1458 l-5 32 2989 0 2990 0 0 218 c0 452
-41 769 -140 1105 -330 1112 -1212 1981 -2325 2290 -370 103 -747 142 -1135
116z m615 -757 c931 -143 1710 -760 2061 -1634 67 -168 142 -441 156 -573 l3
-30 -2595 -3 c-1427 -1 -2600 0 -2606 2 -16 6 0 98 46 282 114 447 334 841
659 1177 357 368 777 610 1271 732 114 28 223 46 420 69 91 11 461 -3 585 -22z"/>
<path d="M28965 11990 c-1183 -78 -2236 -766 -2776 -1815 -564 -1095 -491
-2405 191 -3420 125 -186 244 -329 420 -505 187 -187 326 -302 535 -439 958
-630 2172 -726 3221 -254 239 107 511 275 729 449 142 113 387 358 499 499
151 190 294 411 396 614 54 108 136 297 146 336 l6 25 -395 0 -395 0 -56 -106
c-119 -225 -302 -463 -504 -656 -387 -370 -871 -608 -1414 -695 -90 -14 -170
-18 -393 -18 -301 1 -409 12 -634 70 -650 166 -1198 558 -1570 1125 -197 299
-321 623 -395 1028 l-5 32 2989 0 2990 0 0 228 c0 560 -67 946 -237 1377 -396
1001 -1262 1766 -2293 2025 -343 86 -721 122 -1055 100z m461 -741 c500 -49
978 -240 1374 -548 112 -87 303 -272 402 -391 197 -235 374 -553 472 -850 51
-156 106 -380 106 -435 l0 -25 -2604 0 -2603 0 18 103 c54 302 179 628 346
902 132 216 356 474 563 647 369 310 885 534 1350 587 52 6 109 13 125 15 71
8 350 5 451 -5z"/>
<path d="M35445 10220 l-1590 -1590 1685 -1685 1685 -1685 519 2 519 3 -1678
1683 -1679 1683 1590 1590 1589 1589 -525 0 -525 0 -1590 -1590z"/>
</g>
</svg>
